Coordinates
version=1
nRows=6
nColumns=36
inDegrees=yes

Units are S.I. units (second, meters, Newtons, ...)
If the header above contains a line with 'inDegrees', this indicates whether rotational values are in degrees (yes) or radians (no).

endheader
time	pelvis_tilt	pelvis_list	pelvis_rotation	pelvis_tx	pelvis_ty	pelvis_tz	hip_flexion_r	hip_adduction_r	hip_rotation_r	knee_angle_r	knee_angle_r_beta	ankle_angle_r	subtalar_angle_r	mtp_angle_r	hip_flexion_l	hip_adduction_l	hip_rotation_l	knee_angle_l	knee_angle_l_beta	ankle_angle_l	subtalar_angle_l	mtp_angle_l	lumbar_extension	lumbar_bending	lumbar_rotation	arm_flex_r	arm_add_r	arm_rot_r	elbow_flex_r	pro_sup_r	arm_flex_l	arm_add_l	arm_rot_l	elbow_flex_l	pro_sup_l
      0.00000000	     -7.45086884	     -0.37886602	      6.22567000	     -0.94196520	      1.24496078	     -0.06774815	     11.16343549	     -2.24236846	     -1.52720543	      4.16624533	      0.07271470	      6.06829838	     -1.40364476	     -6.00239649	      8.89490309	     -0.83958546	      3.61555178	      4.83144664	      0.08432465	     16.31139836	      2.09720577	     -6.00239649	     10.15061585	     -0.61671322	    -10.07192064	     27.68799674	    -22.38712195	     42.05986907	    114.63232720	     70.78005826	    -27.98432474	    -20.03543479	     12.67098015	     51.34833434	     67.25424087
      0.01666670	     -8.08517503	     -1.29913777	      5.81059701	     -0.94925029	      1.24322318	     -0.06527416	     12.90226264	     -1.01197693	     -1.63044626	      5.22352385	      0.09116769	      5.97582588	     -1.26000627	     -6.52440979	     10.82481138	     -2.04351965	      2.02730634	      6.18955033	      0.10802803	     16.41029340	      2.48388903	     -6.52440979	     10.32762069	      0.63424700	     -8.07411579	     25.98387324	    -21.63960032	     37.61636251	    122.63977584	     85.81882633	    -26.08218629	    -17.23699166	      1.37683693	     46.90724079	     81.15049975
      0.03333330	     -8.82461990	     -1.54945033	      5.54183208	     -0.94341263	      1.23999874	     -0.06205047	     13.63390016	     -0.77589128	     -2.29883425	      5.27578019	      0.09207973	      5.15480909	     -1.39922128	     -6.68329998	     11.79199894	     -2.55194472	      1.18427608	      5.87815143	      0.10259310	     16.60079631	      3.42925364	     -6.68329998	     10.80125767	      0.97526569	     -7.02326021	     25.72644030	    -20.69241655	     38.58658509	    124.99338645	     91.74637421	    -25.69341576	    -17.18938361	     -0.63602144	     47.20622289	     82.43231721
      0.05000000	     -9.15464186	     -1.44232048	      5.73943102	     -0.94483814	      1.23862690	     -0.06265481	     14.26804308	     -1.10799507	     -4.20650518	      6.10392612	      0.10653361	      5.71315192	     -0.09314727	     -6.74656924	     12.77830443	     -2.53892940	      0.86515650	      6.70634596	      0.11704782	     17.09283602	      4.45892217	     -6.74656924	     11.01611770	      0.89203307	     -7.00533337	     27.09545935	    -19.25434889	     40.43480761	    126.13957264	     92.06246331	    -25.07437795	    -17.49077285	      0.37798975	     50.41210951	     82.14260910
      0.06666670	     -9.34959631	     -1.35715467	      5.75747941	     -0.94476418	      1.23856596	     -0.06287096	     14.76255815	     -1.26254853	     -5.09784345	      6.84769364	      0.11951480	      5.86916738	      0.01310805	     -6.89960346	     13.08125275	     -2.56957235	      0.59235751	      7.32347446	      0.12781874	     17.50989743	      5.03587747	     -6.89960346	     11.22332711	      0.83643524	     -6.95681867	     28.60327873	    -18.23954576	     41.42916142	    126.30935287	     99.02076472	    -25.21778855	    -17.32262541	      1.18654593	     53.43946003	     83.54955400
      0.08333330	     -9.48323548	     -1.20738586	      5.65879163	     -0.94498905	      1.23857575	     -0.06280203	     15.17545600	     -1.45286239	     -5.52268176	      7.62922243	      0.13315505	      6.45277754	      0.42942955	     -6.99443449	     13.47426685	     -2.57079394	      0.05057827	      8.36773655	      0.14604455	     17.92922049	      6.01093724	     -6.99443449	     11.64502671	      0.82502273	     -6.74733298	     29.69641462	    -17.49751990	     42.39971717	    126.92561715	     98.87062038	    -25.37264051	    -17.29485594	      2.39976554	     56.04411186	     83.24084102
